<?xml version="1.0" encoding="utf-8"?>
<!-- Generator: Adobe Illustrator 18.1.1, SVG Export Plug-In . SVG Version: 6.00 Build 0)  -->
<svg version="1.1" id="Layer_1" xmlns="http://www.w3.org/2000/svg" xmlns:xlink="http://www.w3.org/1999/xlink" x="0px" y="0px"
	 viewBox="-241 333 128 128" enable-background="new -241 333 128 128" xml:space="preserve">
<path fill="#FFFFFF" d="M-129,333h-96c-8.8,0-16,7.2-16,16v96c0,8.8,7.2,16,16,16h96c8.8,0,16-7.2,16-16v-96
	C-113,340.2-120.2,333-129,333z M-161.9,397.9c0,18.2-12.1,30.4-30.1,30.4c-17.6,0-31.9-14.1-31.9-31.3c0-17.3,14.3-31.3,31.9-31.3
	c7.7,0,15.1,2.7,20.9,7.7l-8.1,9.2c-3.6-3-8.1-4.7-12.8-4.7c-10.8,0-19.6,8.6-19.6,19.2c0,10.6,8.8,19.2,19.6,19.2
	c9.1,0,15.1-4.4,17-12.2h-16.9v-12.1h29.9V397.9z M-123.9,399.7h-11v11h-8v-11h-11v-8h11v-11h8v11h11V399.7z"/>
</svg>
